<svg xmlns="http://www.w3.org/2000/svg" width="1046.867" height="71.973" viewBox="0 0 1046.867 71.973">
  <g id="squiggly" transform="translate(-436.105 -859.344)">
    <path id="Path_9" data-name="Path 9" d="M0,0S19.463,37.37,67.864,29.371,145.775-24.651,193.6-31.994,254.843-8.522,254.843-8.522" transform="translate(700.5 896.5)" fill="none" stroke="#d71c63" stroke-linecap="round" stroke-width="8"/>
    <path id="Path_10" data-name="Path 10" d="M0,0S19.463,37.37,67.864,29.371,145.775-24.651,193.6-31.994,259.181,0,259.181,0" transform="translate(441.5 896.5)" fill="none" stroke="#d71c63" stroke-linecap="round" stroke-width="8"/>
    <path id="Path_11" data-name="Path 11" d="M0,0S19.463,37.37,67.864,29.371,145.775-24.651,193.6-31.994,259.181,0,259.181,0" transform="translate(1218.5 896.5)" fill="none" stroke="#6ad0a9" stroke-linecap="round" stroke-width="8"/>
    <path id="Path_12" data-name="Path 12" d="M6.014,8.75s13.449,28.62,61.85,20.622S145.775-24.651,193.6-31.994,259.181,0,259.181,0" transform="translate(959.5 896.5)" fill="none" stroke="#6bd1aa" stroke-linecap="round" stroke-width="8"/>
  </g>
</svg>
