<svg xmlns="http://www.w3.org/2000/svg" width="390" height="104" viewBox="0 0 390 104">
  <g id="scroll_arrow" data-name="scroll arrow" transform="translate(-93 -458)">
    <path id="Polygon_1" data-name="Polygon 1" d="M14.711,3.578a2,2,0,0,1,3.578,0L31.553,30.106A2,2,0,0,1,29.764,33H3.236a2,2,0,0,1-1.789-2.894Z" transform="translate(305 562) rotate(180)" fill="#585858"/>
    <g id="Polygon_2" data-name="Polygon 2" transform="translate(305 552) rotate(180)" fill="#585858" stroke-linecap="round">
      <path d="M 29.80633735656738 33.50000381469727 L 3.193658113479614 33.50000381469727 C 2.673628091812134 33.50000381469727 2.198378086090088 33.23687362670898 1.922378063201904 32.796142578125 C 1.646368145942688 32.35539627075195 1.617128133773804 31.81295394897461 1.844178080558777 31.3451042175293 L 15.1505184173584 3.925974369049072 C 15.40731811523438 3.396804332733154 15.91180801391602 3.080874443054199 16.49999809265137 3.080874443054199 C 17.08819770812988 3.080874443054199 17.59267807006836 3.396794319152832 17.84947776794434 3.925974369049072 L 31.15582847595215 31.3451042175293 C 31.38287734985352 31.81295394897461 31.3536376953125 32.35539627075195 31.07762718200684 32.79613494873047 C 30.8016185760498 33.23687362670898 30.32636833190918 33.50000381469727 29.80633735656738 33.50000381469727 Z" stroke="none"/>
      <path d="M 16.49999809265137 3.580863952636719 C 16.10786819458008 3.580863952636719 15.77154731750488 3.791484832763672 15.6003475189209 4.144275665283203 L 2.293998718261719 31.56340408325195 C 2.075828552246094 32.01297378540039 2.257778167724609 32.38966369628906 2.346128463745117 32.53074264526367 C 2.434478759765625 32.67183303833008 2.693937301635742 32.99999618530273 3.193658828735352 32.99999618530273 L 29.80633735656738 32.99999618530273 C 30.3060474395752 32.99999618530273 30.56550788879395 32.67184448242188 30.65385818481445 32.53075408935547 C 30.74221801757812 32.38966369628906 30.92416763305664 32.01297378540039 30.70599746704102 31.56340408325195 L 17.3996467590332 4.144264221191406 C 17.22844696044922 3.791484832763672 16.89212799072266 3.580863952636719 16.49999809265137 3.580863952636719 M 16.50000190734863 2.580867767333984 C 17.21738052368164 2.580867767333984 17.93475723266602 2.956470489501953 18.29930877685547 3.707675933837891 L 31.60565757751465 31.12680435180664 C 32.25025939941406 32.45509338378906 31.28277778625488 33.99999618530273 29.80633735656738 33.99999618530273 L 3.193658828735352 33.99999618530273 C 1.717218399047852 33.99999618530273 0.7497291564941406 32.45509338378906 1.39434814453125 31.12680435180664 L 14.70068740844727 3.707675933837891 C 15.06524276733398 2.956470489501953 15.78262329101562 2.580867767333984 16.50000190734863 2.580867767333984 Z" stroke="none" fill="#fff"/>
    </g>
  </g>
</svg>
